<mxfile host="app.diagrams.net" modified="2024-02-12T11:11:54.883Z" agent="Mozilla/5.0 (Macintosh; Intel Mac OS X 10_15_7) AppleWebKit/605.1.15 (KHTML, like Gecko) Version/17.1 Safari/605.1.15" version="23.1.2" etag="CEhTCJG37sNLA6cA6gQj" type="github">
  <diagram name="Page-1" id="9Ks1lGpCIP7mr9QYOKVi">
    <mxGraphModel>
      <root>
        <mxCell id="0" />
        <mxCell id="1" parent="0" />
      </root>
    </mxGraphModel>
  </diagram>
</mxfile>
